/* XPM */
static char *_606d344d812417cd7c23522ed9130a3jj4KNT4xV2zhgRxx[] = {
/* columns rows colors chars-per-pixel */
"32 32 9 1 ",
"  c #72751B",
". c #787B21",
"X c #686F16",
"o c #7F8124",
"O c #C6A740",
"+ c #A2783C",
"@ c #636917",
"# c #BD9842",
"$ c white",
/* pixels */
"                                ",
"                                ",
"                                ",
" ..                             ",
" Xoo                            ",
"  o..   .                       ",
"  X.. o.                        ",
"  X...OO            o           ",
"   XXO++O          ..  oo.      ",
"     @OO@##     .  .X ..o       ",
"      @@ +#      o.X  ..X       ",
"         @@      ..OO..X.o      ",
"                  O++OX..X      ",
"                  @OO@X.X       ",
"                   @@  ##       ",
"            oo.       #++#      ",
"             o..      @##@      ",
"             X..     OO@@       ",
"              XX    O+O@        ",
"                    OO@         ",
"                    @@          ",
"                                ",
" oo    ..                       ",
"  o. OO.                   oo   ",
"  X..O+.              .  ..o    ",
"  X..@@X              ooX..X    ",
"   XX                 o..XX     ",
"                      X..       ",
"                                ",
"                                ",
"                                ",
"                                "
};
