/* XPM */
static char *_1988af69a644c60e5871d5ea231ace0mDx5HGm3L3b1Ayg7[] = {
/* columns rows colors chars-per-pixel */
"32 23 101 2 ",
"   c None",
".  c #2D3835",
"X  c #2E3936",
"o  c #303934",
"O  c #3D3D36",
"+  c #3C3D37",
"@  c #3D3D37",
"#  c #333E3B",
"$  c #343F3C",
"%  c #37423F",
"&  c #3C413C",
"*  c #42433D",
"=  c #41443E",
"-  c #50473C",
";  c #614535",
":  c #674736",
">  c #6E4B39",
",  c #704730",
"<  c #754932",
"1  c #7D4C35",
"2  c #724D3A",
"3  c #5D5851",
"4  c #695149",
"5  c #6E544B",
"6  c #71564D",
"7  c #74584E",
"8  c #7C594D",
"9  c #755A51",
"0  c #765D56",
"q  c #7E5C50",
"w  c #7A6B63",
"e  c #707177",
"r  c #767776",
"t  c #76727A",
"y  c #7C747B",
"u  c #8F3232",
"i  c #873E37",
"p  c #943535",
"a  c #9B3939",
"s  c #9C3A3A",
"d  c #9D3B3B",
"f  c #A03C3D",
"g  c #A23C3E",
"h  c #804D36",
"j  c #844F37",
"k  c #82513B",
"l  c #865038",
"z  c #86533C",
"x  c #A1403E",
"c  c #98484C",
"v  c #8D5941",
"b  c #985245",
"n  c #915D49",
"m  c #825E50",
"M  c #815F53",
"N  c #985E51",
"B  c #A74040",
"V  c #A74343",
"C  c #AA4143",
"Z  c #AE4246",
"A  c #A7555A",
"S  c #8C7C42",
"D  c #836353",
"F  c #896250",
"G  c #826259",
"H  c #906452",
"J  c #946D56",
"K  c #9C6957",
"L  c #A16854",
"P  c #A4715B",
"I  c #A8715B",
"U  c #A8725B",
"Y  c #8E6065",
"T  c #8E6267",
"R  c #956960",
"E  c #92696E",
"W  c #8D7266",
"Q  c #947D79",
"!  c #AD7761",
"~  c #A76B75",
"^  c #A3787D",
"/  c #C44E55",
"(  c #C55058",
")  c #CA655A",
"_  c #D37460",
"`  c #9A8975",
"'  c #BD8872",
"]  c #AEA27B",
"[  c #847B81",
"{  c #A0A7B8",
"}  c #D2B28C",
"|  c #CABBA7",
" . c #9CA4C2",
".. c #9CA5C6",
"X. c #9DA6C6",
"o. c #A3ABC7",
"O. c #A9ACCA",
"+. c #B4BBDD",
"@. c #B6BDE4",
"#. c #BDCAE4",
"$. c #BFC5EC",
/* pixels */
"                                                                ",
"                                                                ",
"                                                                ",
"                                                                ",
"                                                                ",
"                                                                ",
"                                      P ! '                     ",
"                                      n I L I                   ",
"                                    b K w J D                   ",
"                                ( B i H | } `                   ",
"                        B Z / C E D T f ) _                     ",
"                      d p a A T [ m Q N x g                     ",
"                      u d ~ { t G h F W R ^                     ",
"                        c #.e   1 j j 8 6 v                     ",
"                          r 3   z k m y 7                       ",
"                        ] S     4 5 9 0                         ",
"                      O. .    > * + + + =                       ",
"                    @.X.    : % % X . . $                       ",
"                  +.o.      2 & $     . .                       ",
"                $.X.          -         o ;                     ",
"                                        , 1                     ",
"                                          <                     ",
"                                                                "
};
