/* XPM */
static char *_489ce6ab6c947189322ef19e12f766cThDpKb90pop5eRyi[] = {
/* columns rows colors chars-per-pixel */
"32 32 72 1 ",
"  c None",
". c #4F2713",
"X c #4E2913",
"o c #532C14",
"O c #542E19",
"+ c #57321C",
"@ c #59341D",
"# c #5D381E",
"$ c #5B3721",
"% c #5E3B24",
"& c #613D25",
"* c #613E29",
"= c #624127",
"- c #64442C",
"; c #674B2F",
": c #694A2F",
"> c #674731",
", c #654A35",
"< c #6A4D31",
"1 c #634C38",
"2 c #6C4E39",
"3 c #6E5134",
"4 c #66513D",
"5 c #68523F",
"6 c #705335",
"7 c #735539",
"8 c #75593B",
"9 c #785A3E",
"0 c #675341",
"q c #695542",
"w c #6C5843",
"e c #6F5F4D",
"r c #7A5E43",
"t c #6F604E",
"y c #7D6144",
"u c #73624E",
"i c #7F6548",
"p c #746552",
"a c #796653",
"s c #7A6A56",
"d c #7C6D5C",
"f c #7E705E",
"g c #806649",
"h c #836A4D",
"j c #876E52",
"k c #886F52",
"l c #806F5E",
"z c #877053",
"x c #8A7256",
"c c #81715F",
"v c #8C765A",
"b c #8E795C",
"n c #907A5D",
"m c #827564",
"M c #857866",
"N c #867968",
"B c #897C6B",
"V c #947F63",
"C c #8E816F",
"Z c #968165",
"A c #988267",
"S c #9A8569",
"D c #8F8271",
"F c #928576",
"G c #948778",
"H c #968B7B",
"J c #988C7E",
"K c #998F81",
"L c #9C9283",
"P c #9F9588",
"I c #A0978A",
"U c #A2988C",
/* pixels */
" %$@@                      %@@% ",
"$laa@ooooo@ oooooooo oooooo%aad+",
"-Mll#66666h@j6366669#i33633*fdN&",
"2GBB&rhhhhk-vhhghhhx-zghhhh-BBG-",
"2JFF*gjhjhn:Vhhjhhhb:vhhhhj*FFK>",
"2IGG*gvnnnV9nvvnnvvb:vvvbbb>FGL>",
"2ILL&hbbnnV7VnnnvbbV<nvbbbV*KHP,",
"<UII-hZZVAS9AVVVVVVZ<VVVVVV*PUU,",
"2UII*hVAVAS9SVVVVAVA<AVAVVV>III>",
"2UII*hnSVAA7SVVVVVVV:AVVVVV>IIU>",
"-IHJ#gnnnnA7VnnnVnnA:VnvMnv-JJU>",
"=IJH#gnnnnV7VnnnnvnV:Avnvnn-HJU>",
"*IBF@gnnnnV3VnnnbbbV-VnvbnV*BCL<",
"*JFV+9hjhhk3khhhhhhb&vhjhhh*BFK>",
"&GBBo9hhhhk&xhhhhhhx$khhghh*NBH*",
"&FMBo9hhhhk#kyy9rrrxOxhhhgg*NBB*",
"#oooO89898io3%%%$&$r+886683#ooo#",
"#HJHooOooOOoooCCBB@oooooooo+HHH%",
"%Zddo-=====o%ofooso&o<-;-;-odfN%",
"%Mddo;66769o;opfoeo&o836334XsdM#",
"%fspo=33338o<ott.to%o8<<<3<oppf$",
"%dtpo=333<8o;ow4sqo%X8<<<;3ottd+",
"+stto=33<<8o<=oooo%<o63<<<3XttpX",
"XuwwX%;;;;8o<;==*-:<o8;;;;,XwwtX",
"XuwwX&;;;;8X3;;<;<;<o7;;;;;X5wuX",
"XuwqX%;;::6X;<<;<<<;o7;,;;;XwwuX",
"X$$++%=%%%7o=%%%=%%%o8%%%%=+++@X",
"XMmmMXXXooooXooooooooXooXXXMmmMX",
"XteupXsfdcmMBBBBCMCfNMmfddXattt.",
".111uo445q5qqqqq4wqwq00000Xu111.",
"......XX......XXXXXX....X....X..",
"                                "
};
